<mxfile host="Electron" modified="2023-11-08T10:08:37.783Z" agent="Mozilla/5.0 (Windows NT 10.0; Win64; x64) AppleWebKit/537.36 (KHTML, like Gecko) draw.io/22.0.2 Chrome/114.0.5735.289 Electron/25.8.4 Safari/537.36" etag="F-XJo7HojdBJQ8d13Uip" version="22.0.2" type="device">
  <diagram name="Página-1" id="P3Kp_mkD6SCr7D9hnscQ">
    <mxGraphModel dx="1019" dy="1989" grid="1" gridSize="10" guides="1" tooltips="1" connect="1" arrows="1" fold="1" page="1" pageScale="1" pageWidth="827" pageHeight="1169" math="0" shadow="0">
      <root>
        <mxCell id="0" />
        <mxCell id="1" parent="0" />
        <mxCell id="BDFHSOEbUySi55BflPAm-15" style="edgeStyle=orthogonalEdgeStyle;rounded=0;orthogonalLoop=1;jettySize=auto;html=1;exitX=1;exitY=0.5;exitDx=0;exitDy=0;entryX=0;entryY=0.5;entryDx=0;entryDy=0;" parent="1" source="BDFHSOEbUySi55BflPAm-1" target="BDFHSOEbUySi55BflPAm-7" edge="1">
          <mxGeometry relative="1" as="geometry" />
        </mxCell>
        <mxCell id="BDFHSOEbUySi55BflPAm-19" style="edgeStyle=orthogonalEdgeStyle;rounded=0;orthogonalLoop=1;jettySize=auto;html=1;exitX=0;exitY=0.5;exitDx=0;exitDy=0;entryX=1;entryY=0.5;entryDx=0;entryDy=0;" parent="1" source="BDFHSOEbUySi55BflPAm-1" target="BDFHSOEbUySi55BflPAm-18" edge="1">
          <mxGeometry relative="1" as="geometry" />
        </mxCell>
        <mxCell id="BDFHSOEbUySi55BflPAm-23" style="edgeStyle=orthogonalEdgeStyle;rounded=0;orthogonalLoop=1;jettySize=auto;html=1;exitX=1;exitY=0.5;exitDx=0;exitDy=0;entryX=0;entryY=0.5;entryDx=0;entryDy=0;" parent="1" source="BDFHSOEbUySi55BflPAm-1" target="BDFHSOEbUySi55BflPAm-21" edge="1">
          <mxGeometry relative="1" as="geometry" />
        </mxCell>
        <mxCell id="BDFHSOEbUySi55BflPAm-24" style="edgeStyle=orthogonalEdgeStyle;rounded=0;orthogonalLoop=1;jettySize=auto;html=1;exitX=1;exitY=0.5;exitDx=0;exitDy=0;entryX=0;entryY=0.5;entryDx=0;entryDy=0;" parent="1" source="BDFHSOEbUySi55BflPAm-1" target="BDFHSOEbUySi55BflPAm-22" edge="1">
          <mxGeometry relative="1" as="geometry" />
        </mxCell>
        <mxCell id="BDFHSOEbUySi55BflPAm-66" style="edgeStyle=orthogonalEdgeStyle;rounded=0;orthogonalLoop=1;jettySize=auto;html=1;exitX=1;exitY=0.25;exitDx=0;exitDy=0;entryX=0;entryY=0.5;entryDx=0;entryDy=0;" parent="1" source="BDFHSOEbUySi55BflPAm-1" target="BDFHSOEbUySi55BflPAm-63" edge="1">
          <mxGeometry relative="1" as="geometry" />
        </mxCell>
        <mxCell id="BDFHSOEbUySi55BflPAm-1" value="LIBRO" style="rounded=0;whiteSpace=wrap;html=1;" parent="1" vertex="1">
          <mxGeometry x="390" y="30" width="120" height="60" as="geometry" />
        </mxCell>
        <mxCell id="BDFHSOEbUySi55BflPAm-2" value="EDITORIAL" style="rounded=0;whiteSpace=wrap;html=1;" parent="1" vertex="1">
          <mxGeometry x="40" y="40" width="120" height="60" as="geometry" />
        </mxCell>
        <mxCell id="BDFHSOEbUySi55BflPAm-3" value="NOMBRE" style="ellipse;whiteSpace=wrap;html=1;" parent="1" vertex="1">
          <mxGeometry x="350" y="290" width="110" height="40" as="geometry" />
        </mxCell>
        <mxCell id="BDFHSOEbUySi55BflPAm-17" style="edgeStyle=orthogonalEdgeStyle;rounded=0;orthogonalLoop=1;jettySize=auto;html=1;exitX=0;exitY=0.5;exitDx=0;exitDy=0;entryX=0;entryY=0.5;entryDx=0;entryDy=0;" parent="1" source="BDFHSOEbUySi55BflPAm-4" target="BDFHSOEbUySi55BflPAm-3" edge="1">
          <mxGeometry relative="1" as="geometry" />
        </mxCell>
        <mxCell id="BDFHSOEbUySi55BflPAm-4" value="AUTOR" style="rounded=0;whiteSpace=wrap;html=1;" parent="1" vertex="1">
          <mxGeometry x="390" y="160" width="120" height="60" as="geometry" />
        </mxCell>
        <mxCell id="BDFHSOEbUySi55BflPAm-6" value="NACIONALIDAD" style="ellipse;whiteSpace=wrap;html=1;" parent="1" vertex="1">
          <mxGeometry x="354" y="240" width="110" height="40" as="geometry" />
        </mxCell>
        <mxCell id="BDFHSOEbUySi55BflPAm-7" value="TÍTULO" style="ellipse;whiteSpace=wrap;html=1;" parent="1" vertex="1">
          <mxGeometry x="574" y="40" width="110" height="40" as="geometry" />
        </mxCell>
        <mxCell id="BDFHSOEbUySi55BflPAm-9" style="edgeStyle=orthogonalEdgeStyle;rounded=0;orthogonalLoop=1;jettySize=auto;html=1;exitX=0.5;exitY=1;exitDx=0;exitDy=0;entryX=0.5;entryY=0;entryDx=0;entryDy=0;" parent="1" source="BDFHSOEbUySi55BflPAm-1" target="BDFHSOEbUySi55BflPAm-4" edge="1">
          <mxGeometry relative="1" as="geometry">
            <mxPoint x="305.99" y="154" as="targetPoint" />
          </mxGeometry>
        </mxCell>
        <mxCell id="BDFHSOEbUySi55BflPAm-16" style="edgeStyle=orthogonalEdgeStyle;rounded=0;orthogonalLoop=1;jettySize=auto;html=1;exitX=0;exitY=0.5;exitDx=0;exitDy=0;entryX=0.373;entryY=-0.025;entryDx=0;entryDy=0;entryPerimeter=0;" parent="1" source="BDFHSOEbUySi55BflPAm-4" target="BDFHSOEbUySi55BflPAm-6" edge="1">
          <mxGeometry relative="1" as="geometry" />
        </mxCell>
        <mxCell id="BDFHSOEbUySi55BflPAm-20" style="edgeStyle=orthogonalEdgeStyle;rounded=0;orthogonalLoop=1;jettySize=auto;html=1;exitX=0;exitY=0.5;exitDx=0;exitDy=0;entryX=1;entryY=0.5;entryDx=0;entryDy=0;" parent="1" source="BDFHSOEbUySi55BflPAm-18" target="BDFHSOEbUySi55BflPAm-2" edge="1">
          <mxGeometry relative="1" as="geometry" />
        </mxCell>
        <mxCell id="BDFHSOEbUySi55BflPAm-28" style="edgeStyle=orthogonalEdgeStyle;rounded=0;orthogonalLoop=1;jettySize=auto;html=1;exitX=0.5;exitY=0;exitDx=0;exitDy=0;entryX=0.5;entryY=1;entryDx=0;entryDy=0;" parent="1" source="BDFHSOEbUySi55BflPAm-18" target="BDFHSOEbUySi55BflPAm-27" edge="1">
          <mxGeometry relative="1" as="geometry" />
        </mxCell>
        <mxCell id="BDFHSOEbUySi55BflPAm-18" value="PERTENECE" style="rhombus;whiteSpace=wrap;html=1;" parent="1" vertex="1">
          <mxGeometry x="230" y="40" width="100" height="60" as="geometry" />
        </mxCell>
        <mxCell id="BDFHSOEbUySi55BflPAm-21" value="ISBN" style="ellipse;whiteSpace=wrap;html=1;" parent="1" vertex="1">
          <mxGeometry x="580" y="90" width="115" height="40" as="geometry" />
        </mxCell>
        <mxCell id="BDFHSOEbUySi55BflPAm-22" value="TEMA" style="ellipse;whiteSpace=wrap;html=1;" parent="1" vertex="1">
          <mxGeometry x="577.5" y="140" width="120" height="40" as="geometry" />
        </mxCell>
        <mxCell id="BDFHSOEbUySi55BflPAm-68" style="edgeStyle=orthogonalEdgeStyle;rounded=0;orthogonalLoop=1;jettySize=auto;html=1;exitX=0.75;exitY=0;exitDx=0;exitDy=0;" parent="1" source="BDFHSOEbUySi55BflPAm-27" edge="1">
          <mxGeometry relative="1" as="geometry">
            <mxPoint x="350" y="-120" as="targetPoint" />
          </mxGeometry>
        </mxCell>
        <mxCell id="BDFHSOEbUySi55BflPAm-69" style="edgeStyle=orthogonalEdgeStyle;rounded=0;orthogonalLoop=1;jettySize=auto;html=1;exitX=1;exitY=0.5;exitDx=0;exitDy=0;" parent="1" source="BDFHSOEbUySi55BflPAm-27" edge="1">
          <mxGeometry relative="1" as="geometry">
            <mxPoint x="350" y="-70" as="targetPoint" />
          </mxGeometry>
        </mxCell>
        <mxCell id="BDFHSOEbUySi55BflPAm-27" value="ESTANTERÍA" style="rounded=0;whiteSpace=wrap;html=1;" parent="1" vertex="1">
          <mxGeometry x="220" y="-100" width="120" height="60" as="geometry" />
        </mxCell>
        <mxCell id="BDFHSOEbUySi55BflPAm-29" value="LUGAR" style="ellipse;whiteSpace=wrap;html=1;" parent="1" vertex="1">
          <mxGeometry x="354" y="-90" width="120" height="40" as="geometry" />
        </mxCell>
        <mxCell id="BDFHSOEbUySi55BflPAm-30" value="Nº ESTANTERÍA" style="ellipse;whiteSpace=wrap;html=1;" parent="1" vertex="1">
          <mxGeometry x="354" y="-140" width="120" height="40" as="geometry" />
        </mxCell>
        <mxCell id="BDFHSOEbUySi55BflPAm-33" style="edgeStyle=orthogonalEdgeStyle;rounded=0;orthogonalLoop=1;jettySize=auto;html=1;exitX=1;exitY=0.5;exitDx=0;exitDy=0;entryX=0;entryY=0.5;entryDx=0;entryDy=0;" parent="1" source="BDFHSOEbUySi55BflPAm-31" target="BDFHSOEbUySi55BflPAm-32" edge="1">
          <mxGeometry relative="1" as="geometry" />
        </mxCell>
        <mxCell id="BDFHSOEbUySi55BflPAm-31" value="EMPLEADO" style="rounded=0;whiteSpace=wrap;html=1;" parent="1" vertex="1">
          <mxGeometry x="40" y="-260" width="120" height="60" as="geometry" />
        </mxCell>
        <mxCell id="BDFHSOEbUySi55BflPAm-32" value="SOLICITA" style="rhombus;whiteSpace=wrap;html=1;" parent="1" vertex="1">
          <mxGeometry x="230" y="-255" width="80" height="50" as="geometry" />
        </mxCell>
        <mxCell id="BDFHSOEbUySi55BflPAm-34" style="edgeStyle=orthogonalEdgeStyle;rounded=0;orthogonalLoop=1;jettySize=auto;html=1;exitX=1;exitY=0.5;exitDx=0;exitDy=0;entryX=0.85;entryY=-0.05;entryDx=0;entryDy=0;entryPerimeter=0;" parent="1" source="BDFHSOEbUySi55BflPAm-32" target="BDFHSOEbUySi55BflPAm-1" edge="1">
          <mxGeometry relative="1" as="geometry" />
        </mxCell>
        <mxCell id="BDFHSOEbUySi55BflPAm-35" value="DIRECCIÓN" style="ellipse;whiteSpace=wrap;html=1;" parent="1" vertex="1">
          <mxGeometry x="10" y="120" width="110" height="40" as="geometry" />
        </mxCell>
        <mxCell id="BDFHSOEbUySi55BflPAm-39" style="edgeStyle=orthogonalEdgeStyle;rounded=0;orthogonalLoop=1;jettySize=auto;html=1;exitX=0.5;exitY=1;exitDx=0;exitDy=0;entryX=0.5;entryY=0;entryDx=0;entryDy=0;" parent="1" source="BDFHSOEbUySi55BflPAm-36" target="BDFHSOEbUySi55BflPAm-31" edge="1">
          <mxGeometry relative="1" as="geometry" />
        </mxCell>
        <mxCell id="BDFHSOEbUySi55BflPAm-40" style="edgeStyle=orthogonalEdgeStyle;rounded=0;orthogonalLoop=1;jettySize=auto;html=1;exitX=0.5;exitY=1;exitDx=0;exitDy=0;" parent="1" source="BDFHSOEbUySi55BflPAm-38" target="BDFHSOEbUySi55BflPAm-37" edge="1">
          <mxGeometry relative="1" as="geometry">
            <Array as="points">
              <mxPoint x="250" y="-370" />
              <mxPoint x="414" y="-370" />
            </Array>
          </mxGeometry>
        </mxCell>
        <mxCell id="BDFHSOEbUySi55BflPAm-55" style="edgeStyle=orthogonalEdgeStyle;rounded=0;orthogonalLoop=1;jettySize=auto;html=1;exitX=0.75;exitY=0;exitDx=0;exitDy=0;entryX=0;entryY=0.5;entryDx=0;entryDy=0;" parent="1" source="BDFHSOEbUySi55BflPAm-36" target="BDFHSOEbUySi55BflPAm-52" edge="1">
          <mxGeometry relative="1" as="geometry" />
        </mxCell>
        <mxCell id="BDFHSOEbUySi55BflPAm-56" style="edgeStyle=orthogonalEdgeStyle;rounded=0;orthogonalLoop=1;jettySize=auto;html=1;exitX=1;exitY=0.25;exitDx=0;exitDy=0;entryX=0;entryY=0.5;entryDx=0;entryDy=0;" parent="1" source="BDFHSOEbUySi55BflPAm-36" target="BDFHSOEbUySi55BflPAm-54" edge="1">
          <mxGeometry relative="1" as="geometry" />
        </mxCell>
        <mxCell id="BDFHSOEbUySi55BflPAm-59" style="edgeStyle=orthogonalEdgeStyle;rounded=0;orthogonalLoop=1;jettySize=auto;html=1;exitX=1;exitY=0.5;exitDx=0;exitDy=0;entryX=0;entryY=0.5;entryDx=0;entryDy=0;" parent="1" source="BDFHSOEbUySi55BflPAm-36" target="BDFHSOEbUySi55BflPAm-58" edge="1">
          <mxGeometry relative="1" as="geometry" />
        </mxCell>
        <mxCell id="BDFHSOEbUySi55BflPAm-36" value="PERSONA" style="rounded=0;whiteSpace=wrap;html=1;" parent="1" vertex="1">
          <mxGeometry x="190" y="-540" width="120" height="60" as="geometry" />
        </mxCell>
        <mxCell id="BDFHSOEbUySi55BflPAm-50" style="edgeStyle=orthogonalEdgeStyle;rounded=0;orthogonalLoop=1;jettySize=auto;html=1;exitX=1;exitY=1;exitDx=0;exitDy=0;entryX=0.5;entryY=0;entryDx=0;entryDy=0;" parent="1" source="BDFHSOEbUySi55BflPAm-37" target="BDFHSOEbUySi55BflPAm-49" edge="1">
          <mxGeometry relative="1" as="geometry">
            <Array as="points">
              <mxPoint x="474" y="-250" />
              <mxPoint x="629" y="-250" />
            </Array>
          </mxGeometry>
        </mxCell>
        <mxCell id="BDFHSOEbUySi55BflPAm-61" style="edgeStyle=orthogonalEdgeStyle;rounded=0;orthogonalLoop=1;jettySize=auto;html=1;exitX=0.75;exitY=0;exitDx=0;exitDy=0;entryX=0;entryY=1;entryDx=0;entryDy=0;" parent="1" source="BDFHSOEbUySi55BflPAm-37" target="BDFHSOEbUySi55BflPAm-43" edge="1">
          <mxGeometry relative="1" as="geometry" />
        </mxCell>
        <mxCell id="BDFHSOEbUySi55BflPAm-62" style="edgeStyle=orthogonalEdgeStyle;rounded=0;orthogonalLoop=1;jettySize=auto;html=1;exitX=1;exitY=0.5;exitDx=0;exitDy=0;entryX=0;entryY=1;entryDx=0;entryDy=0;" parent="1" source="BDFHSOEbUySi55BflPAm-37" target="BDFHSOEbUySi55BflPAm-60" edge="1">
          <mxGeometry relative="1" as="geometry" />
        </mxCell>
        <mxCell id="BDFHSOEbUySi55BflPAm-37" value="USUARIO" style="rounded=0;whiteSpace=wrap;html=1;" parent="1" vertex="1">
          <mxGeometry x="354" y="-330" width="120" height="60" as="geometry" />
        </mxCell>
        <mxCell id="BDFHSOEbUySi55BflPAm-41" value="" style="edgeStyle=orthogonalEdgeStyle;rounded=0;orthogonalLoop=1;jettySize=auto;html=1;exitX=0.5;exitY=1;exitDx=0;exitDy=0;" parent="1" source="BDFHSOEbUySi55BflPAm-36" target="BDFHSOEbUySi55BflPAm-38" edge="1">
          <mxGeometry relative="1" as="geometry">
            <mxPoint x="250" y="-480" as="sourcePoint" />
            <mxPoint x="414" y="-330" as="targetPoint" />
            <Array as="points" />
          </mxGeometry>
        </mxCell>
        <mxCell id="BDFHSOEbUySi55BflPAm-38" value="IS A" style="triangle;whiteSpace=wrap;html=1;rotation=90;" parent="1" vertex="1">
          <mxGeometry x="220" y="-470" width="60" height="80" as="geometry" />
        </mxCell>
        <mxCell id="BDFHSOEbUySi55BflPAm-43" value="PENALIZACIÓN" style="ellipse;whiteSpace=wrap;html=1;" parent="1" vertex="1">
          <mxGeometry x="450" y="-380" width="110" height="40" as="geometry" />
        </mxCell>
        <mxCell id="BDFHSOEbUySi55BflPAm-44" value="NÚMERO" style="ellipse;whiteSpace=wrap;html=1;" parent="1" vertex="1">
          <mxGeometry x="695" y="-255" width="100" height="30" as="geometry" />
        </mxCell>
        <mxCell id="BDFHSOEbUySi55BflPAm-67" style="edgeStyle=orthogonalEdgeStyle;rounded=0;orthogonalLoop=1;jettySize=auto;html=1;exitX=0.75;exitY=1;exitDx=0;exitDy=0;entryX=0.5;entryY=0;entryDx=0;entryDy=0;" parent="1" source="BDFHSOEbUySi55BflPAm-45" target="BDFHSOEbUySi55BflPAm-44" edge="1">
          <mxGeometry relative="1" as="geometry" />
        </mxCell>
        <mxCell id="BDFHSOEbUySi55BflPAm-45" value="CARNET&lt;br&gt;BIBLIOTECA" style="rounded=0;whiteSpace=wrap;html=1;" parent="1" vertex="1">
          <mxGeometry x="650" y="-330" width="120" height="60" as="geometry" />
        </mxCell>
        <mxCell id="BDFHSOEbUySi55BflPAm-51" style="edgeStyle=orthogonalEdgeStyle;rounded=0;orthogonalLoop=1;jettySize=auto;html=1;exitX=0.5;exitY=1;exitDx=0;exitDy=0;entryX=1;entryY=0;entryDx=0;entryDy=0;" parent="1" source="BDFHSOEbUySi55BflPAm-49" target="BDFHSOEbUySi55BflPAm-1" edge="1">
          <mxGeometry relative="1" as="geometry" />
        </mxCell>
        <mxCell id="BDFHSOEbUySi55BflPAm-49" value="PUEDE RETIRAR" style="rhombus;whiteSpace=wrap;html=1;" parent="1" vertex="1">
          <mxGeometry x="589" y="-160" width="80" height="80" as="geometry" />
        </mxCell>
        <mxCell id="BDFHSOEbUySi55BflPAm-52" value="DNI" style="ellipse;whiteSpace=wrap;html=1;" parent="1" vertex="1">
          <mxGeometry x="270" y="-599" width="110" height="30" as="geometry" />
        </mxCell>
        <mxCell id="BDFHSOEbUySi55BflPAm-54" value="NOMBRE" style="ellipse;whiteSpace=wrap;html=1;" parent="1" vertex="1">
          <mxGeometry x="330" y="-560" width="110" height="30" as="geometry" />
        </mxCell>
        <mxCell id="BDFHSOEbUySi55BflPAm-57" style="edgeStyle=orthogonalEdgeStyle;rounded=0;orthogonalLoop=1;jettySize=auto;html=1;exitX=1;exitY=0.75;exitDx=0;exitDy=0;entryX=0.433;entryY=0;entryDx=0;entryDy=0;entryPerimeter=0;" parent="1" source="BDFHSOEbUySi55BflPAm-36" target="BDFHSOEbUySi55BflPAm-45" edge="1">
          <mxGeometry relative="1" as="geometry">
            <Array as="points">
              <mxPoint x="310" y="-480" />
              <mxPoint x="702" y="-480" />
            </Array>
          </mxGeometry>
        </mxCell>
        <mxCell id="BDFHSOEbUySi55BflPAm-58" value="TELÉFONO" style="ellipse;whiteSpace=wrap;html=1;" parent="1" vertex="1">
          <mxGeometry x="340" y="-525" width="130" height="30" as="geometry" />
        </mxCell>
        <mxCell id="BDFHSOEbUySi55BflPAm-60" value="REGISTRO DE SOLICITUD" style="ellipse;whiteSpace=wrap;html=1;" parent="1" vertex="1">
          <mxGeometry x="480" y="-340" width="120" height="40" as="geometry" />
        </mxCell>
        <mxCell id="BDFHSOEbUySi55BflPAm-63" value="REGISTRO DE&lt;br&gt;RESERVA" style="ellipse;whiteSpace=wrap;html=1;" parent="1" vertex="1">
          <mxGeometry x="589" y="-10" width="106" height="40" as="geometry" />
        </mxCell>
        <mxCell id="BDFHSOEbUySi55BflPAm-64" value="REGISTRO DE RESERVA" style="ellipse;whiteSpace=wrap;html=1;" parent="1" vertex="1">
          <mxGeometry x="410" y="-430" width="100" height="50" as="geometry" />
        </mxCell>
        <mxCell id="BDFHSOEbUySi55BflPAm-65" style="edgeStyle=orthogonalEdgeStyle;rounded=0;orthogonalLoop=1;jettySize=auto;html=1;exitX=0.75;exitY=0;exitDx=0;exitDy=0;entryX=0.2;entryY=1.02;entryDx=0;entryDy=0;entryPerimeter=0;" parent="1" source="BDFHSOEbUySi55BflPAm-37" target="BDFHSOEbUySi55BflPAm-64" edge="1">
          <mxGeometry relative="1" as="geometry" />
        </mxCell>
        <mxCell id="BDFHSOEbUySi55BflPAm-70" style="edgeStyle=orthogonalEdgeStyle;rounded=0;orthogonalLoop=1;jettySize=auto;html=1;exitX=0;exitY=0.75;exitDx=0;exitDy=0;entryX=0.182;entryY=0;entryDx=0;entryDy=0;entryPerimeter=0;" parent="1" source="BDFHSOEbUySi55BflPAm-2" target="BDFHSOEbUySi55BflPAm-35" edge="1">
          <mxGeometry relative="1" as="geometry" />
        </mxCell>
      </root>
    </mxGraphModel>
  </diagram>
</mxfile>
